<svg width="35" height="35" viewBox="0 0 35 35" fill="none" xmlns="http://www.w3.org/2000/svg">
<path d="M10.5 0C8.567 0 7 1.567 7 3.5V19.8333C7 21.7663 8.567 23.3333 10.5 23.3333H31.5C33.433 23.3333 35 21.7663 35 19.8333V8.16667C35 6.23367 33.433 4.66667 31.5 4.66667H22.6499L17.9832 0H10.5Z" fill="#FBB03B"/>
<path d="M28 25.6667H10.5C7.27834 25.6667 4.66667 23.055 4.66667 19.8333V11.6667H3.5C1.567 11.6667 0 13.2337 0 15.1667V31.5C0 33.433 1.567 35 3.5 35H24.5C26.433 35 28 33.433 28 31.5V25.6667Z" fill="#FBB03B"/>
</svg>
