<svg width="20" height="20" viewBox="0 0 20 20" fill="none" xmlns="http://www.w3.org/2000/svg">
<path d="M7.33341 0.666656H2.00008C1.2637 0.666656 0.666748 1.26361 0.666748 1.99999V7.33332C0.666748 8.0697 1.2637 8.66666 2.00008 8.66666H7.33341C8.06979 8.66666 8.66675 8.0697 8.66675 7.33332V1.99999C8.66675 1.26361 8.06979 0.666656 7.33341 0.666656Z" stroke="#FBB03B"/>
<path d="M18.0001 0.666656H12.6667C11.9304 0.666656 11.3334 1.26361 11.3334 1.99999V7.33332C11.3334 8.0697 11.9304 8.66666 12.6667 8.66666H18.0001C18.7365 8.66666 19.3334 8.0697 19.3334 7.33332V1.99999C19.3334 1.26361 18.7365 0.666656 18.0001 0.666656Z" stroke="#FBB03B"/>
<path d="M18.0001 11.3333H12.6667C11.9304 11.3333 11.3334 11.9303 11.3334 12.6667V18C11.3334 18.7364 11.9304 19.3333 12.6667 19.3333H18.0001C18.7365 19.3333 19.3334 18.7364 19.3334 18V12.6667C19.3334 11.9303 18.7365 11.3333 18.0001 11.3333Z" stroke="#FBB03B"/>
<path d="M7.33341 11.3333H2.00008C1.2637 11.3333 0.666748 11.9303 0.666748 12.6667V18C0.666748 18.7364 1.2637 19.3333 2.00008 19.3333H7.33341C8.06979 19.3333 8.66675 18.7364 8.66675 18V12.6667C8.66675 11.9303 8.06979 11.3333 7.33341 11.3333Z" stroke="#FBB03B"/>
</svg>
