<svg width="597" height="680" viewBox="0 0 597 680" fill="none" xmlns="http://www.w3.org/2000/svg">
<g opacity="0.3">
<path d="M481.844 56.9699C536.086 90.7787 582.808 145.321 593.476 206.194C604.289 267.047 579.055 334.382 545.696 401.223C512.343 468.216 470.88 535.104 403.722 581.054C336.563 627.182 243.717 652.576 172.648 624.027C101.737 595.628 52.6088 513.141 25.7113 433.809C-1.02834 354.471 -5.38636 278.294 8.28585 205.701C21.8069 133.298 53.2069 64.6349 105.49 30.5238C157.773 -3.58728 230.946 -3.13369 298.4 3.63068C365.709 10.2439 427.609 23.3124 481.844 56.9699Z" fill="#F0F0F0"/>
<path d="M513.481 680.449C509.004 672.633 449.195 543.058 449.195 532.855C449.195 529.371 468.159 422.943 476.553 421.707C484.947 420.471 505.1 412.01 511.561 409.683C512.311 418.302 556.824 680.449 556.824 680.449H513.481Z" fill="#3B3744"/>
<path d="M375.023 680.449C375.023 663.462 375.628 412.01 375.628 412.01C375.628 412.01 483.645 416.126 492.749 416.566C492.749 468.913 417.374 639.771 417.374 680.449H375.023Z" fill="#3B3744"/>
<path d="M436.331 197.674C433.104 192.593 418.097 167.435 416.769 163.083C415.441 158.731 406.252 82.2789 406.252 82.2789L380.321 83.5936C380.321 83.5936 377.501 165.345 380.321 171.544C383.141 177.743 403.807 217.763 403.807 217.763L419.78 227.92L436.331 197.674Z" fill="white"/>
<path d="M375.904 155.609C376.075 162.222 376.417 166.942 377.015 168.256C379.835 174.456 400.501 214.476 400.501 214.476L416.474 224.633L433.045 194.394C429.817 189.312 414.811 164.154 413.483 159.803C412.155 155.451 402.966 78.9983 402.966 78.9983L377.034 80.3131C377.034 80.3131 375.976 111.039 375.805 136.242" stroke="#1B3C87" stroke-width="3.19" stroke-linecap="round" stroke-linejoin="round"/>
<path d="M554.316 11.6971L573.557 9.82393C574.533 9.72891 575.518 9.82708 576.456 10.1128C577.394 10.3986 578.267 10.8663 579.024 11.4893C579.782 12.1123 580.409 12.8783 580.87 13.7437C581.331 14.6092 581.618 15.5569 581.713 16.533L586.066 61.2531C586.258 63.2243 585.659 65.1911 584.4 66.7207C583.142 68.2503 581.328 69.2174 579.357 69.4093L560.116 71.2824L554.316 11.6971Z" fill="#B2C3FB"/>
<path d="M195.917 46.5833L147.223 81.3978L201.721 106.168L560.117 71.2545L554.313 11.6702L195.917 46.5833Z" fill="#D8DFFF"/>
<path d="M459.048 191.074C527.869 191.074 512.081 381.923 511.561 409.684C500.808 422.693 389.248 419.544 375.023 410.722C371.461 380.365 384.554 191.074 459.048 191.074Z" fill="#46DBC9"/>
<path d="M505.086 262.478C514.019 319.255 508.577 390.285 508.274 406.397C502.174 413.773 463.669 415.962 428.87 414.864" stroke="#1B3C87" stroke-width="3.19" stroke-linecap="round" stroke-linejoin="round"/>
<path d="M373.794 350.711C380.663 284.461 402.526 187.787 455.762 187.787C474.476 187.787 486.932 201.901 495.142 223.009" stroke="#1B3C87" stroke-width="3.19" stroke-linecap="round" stroke-linejoin="round"/>
<path d="M401.842 413.26C387.131 411.905 375.687 409.894 371.737 407.435C371.224 403.083 371.079 395.465 371.362 385.604" stroke="#1B3C87" stroke-width="3.19" stroke-linecap="round" stroke-linejoin="round"/>
<path d="M468.402 497.141C458.141 526.814 447.322 553.977 444.121 563.45C437.955 581.692 414.088 664.83 414.088 677.175" stroke="#1B3C87" stroke-width="3.19" stroke-linecap="round" stroke-linejoin="round"/>
<path d="M489.462 412.635C489.462 424.889 485.236 443.381 479.333 463.345" stroke="#1B3C87" stroke-width="3.19" stroke-linecap="round" stroke-linejoin="round"/>
<path d="M371.736 622.916V677.162" stroke="#1B3C87" stroke-width="3.19" stroke-linecap="round" stroke-linejoin="round"/>
<path d="M371.736 407.435V582.244" stroke="#1B3C87" stroke-width="3.19" stroke-linecap="round" stroke-linejoin="round"/>
<path d="M508.275 406.397C508.275 422.134 547.714 653.089 553.511 677.162" stroke="#1B3C87" stroke-width="3.19" stroke-linecap="round" stroke-linejoin="round"/>
<path d="M485.176 625.164C470.558 592.782 454.552 555.64 450.996 544.899" stroke="#1B3C87" stroke-width="3.19" stroke-linecap="round" stroke-linejoin="round"/>
<path d="M510.194 677.162C508.156 674.06 503.529 664.731 497.705 652.327" stroke="#1B3C87" stroke-width="3.19" stroke-linecap="round" stroke-linejoin="round"/>
<path d="M89.747 289.779C96.1145 289.779 101.276 284.616 101.276 278.248C101.276 271.88 96.1145 266.718 89.747 266.718C83.3795 266.718 78.2176 271.88 78.2176 278.248C78.2176 284.616 83.3795 289.779 89.747 289.779Z" fill="#B2C3FB"/>
<path d="M311.71 308.428C317.722 308.428 322.595 303.555 322.595 297.542C322.595 291.53 317.722 286.656 311.71 286.656C305.698 286.656 300.825 291.53 300.825 297.542C300.825 303.555 305.698 308.428 311.71 308.428Z" fill="#FB5D64"/>
<path d="M213.31 552.662C219.321 552.662 224.195 547.788 224.195 541.776C224.195 535.764 219.321 530.89 213.31 530.89C207.298 530.89 202.424 535.764 202.424 541.776C202.424 547.788 207.298 552.662 213.31 552.662Z" fill="white"/>
<path d="M123.065 98.3069L64.8992 148.2L171.371 272.345L229.536 222.452L123.065 98.3069Z" fill="white"/>
<path d="M482.889 167.422C481.982 174.127 480.26 198.161 480.976 206.509C477.236 210.105 459.39 210.828 452.054 204.353C453.494 197.444 456.807 191.396 454.933 177.006C453.06 162.616 482.889 167.422 482.889 167.422Z" fill="white"/>
<path d="M450.957 195.774C452.33 190.66 453.632 184.645 452.271 174.377C450.404 159.98 480.233 164.792 480.233 164.792C479.326 171.497 477.604 195.531 478.321 203.88C475.415 206.673 463.985 207.732 455.591 205.023" stroke="#1B3C87" stroke-width="3.19" stroke-linecap="round" stroke-linejoin="round"/>
<path d="M460.014 179.518C478.235 179.518 493.005 160.14 493.005 136.236C493.005 112.332 478.235 92.9546 460.014 92.9546C441.794 92.9546 427.024 112.332 427.024 136.236C427.024 160.14 441.794 179.518 460.014 179.518Z" fill="white"/>
<path d="M425.163 142.928C424.648 139.848 424.391 136.73 424.394 133.607C424.394 109.705 439.164 90.3251 457.385 90.3251C475.606 90.3251 490.376 109.705 490.376 133.607C490.44 141.992 488.517 150.273 484.762 157.772" stroke="#1B3C87" stroke-width="3.19" stroke-linecap="round" stroke-linejoin="round"/>
<path d="M468.31 174.462C464.887 176.054 461.16 176.881 457.385 176.888C445.396 176.888 434.892 168.493 429.121 155.937" stroke="#1B3C87" stroke-width="3.19" stroke-linecap="round" stroke-linejoin="round"/>
<path d="M442.707 140.272C443.488 140.272 444.12 138.565 444.12 136.46C444.12 134.354 443.488 132.647 442.707 132.647C441.927 132.647 441.294 134.354 441.294 136.46C441.294 138.565 441.927 140.272 442.707 140.272Z" fill="#1B3C87"/>
<path d="M436.535 137.393C436.535 140.476 433.761 145.669 431.073 148.489" stroke="#1B3C87" stroke-width="3.19" stroke-linecap="round" stroke-linejoin="round"/>
<path d="M439.486 163.359C440.926 163.359 446.007 161.538 449.642 156.233" stroke="#1B3C87" stroke-width="3.19" stroke-linecap="round" stroke-linejoin="round"/>
<path d="M475.047 147.504C476.474 149.436 477.913 163.399 480.963 164.313C484.013 165.226 496.949 140.647 496.949 130.787C496.949 112.959 486.432 73.0166 470.972 73.0166C465.365 73.0166 464.859 81.6807 464.859 85.0399C463.025 80.4383 454.565 70.5777 443.871 70.5777C425.735 70.5777 426.025 87.6694 429.199 101.146C426.044 99.4101 425.913 98.9039 422.068 98.9039C418.61 98.9039 416.77 103.433 416.77 108.173C416.77 119.585 422.902 123.661 427.681 125.6C432.46 127.539 446.211 128.453 455.288 128.229C456.399 130.819 464.754 147.707 475.047 147.504Z" fill="#ECC953"/>
<path d="M432.434 124.002C438.925 124.758 445.461 125.079 451.995 124.962C453.113 127.506 461.467 144.42 471.761 144.216C473.187 146.149 474.627 160.112 477.677 161.025C478.472 161.269 479.951 159.763 481.693 157.232" stroke="#1B3C87" stroke-width="3.19" stroke-linecap="round" stroke-linejoin="round"/>
<path d="M428.509 71.6556C422.915 77.572 423.731 88.5764 425.913 97.852C422.758 96.1165 422.626 95.6103 418.781 95.6103C415.323 95.6103 413.483 100.14 413.483 104.879C413.483 112.965 416.566 117.369 420.056 119.94" stroke="#1B3C87" stroke-width="3.19" stroke-linecap="round" stroke-linejoin="round"/>
<path d="M476.467 74.1667C473.772 71.386 470.834 69.736 467.685 69.736C462.078 69.736 461.572 78.3936 461.572 81.7594C459.738 77.1578 451.279 67.2972 440.584 67.2972C440.104 67.2972 439.638 67.2972 439.184 67.2972" stroke="#1B3C87" stroke-width="3.19" stroke-linecap="round" stroke-linejoin="round"/>
<path d="M489.061 143.5C491.691 137.524 493.662 131.384 493.662 127.506C493.662 116.672 489.791 97.6874 483.277 84.4479" stroke="#1B3C87" stroke-width="3.19" stroke-linecap="round" stroke-linejoin="round"/>
<path d="M469.894 152.197C475.64 152.197 480.299 147.538 480.299 141.791C480.299 136.044 475.64 131.385 469.894 131.385C464.147 131.385 459.488 136.044 459.488 141.791C459.488 147.538 464.147 152.197 469.894 152.197Z" fill="white"/>
<path d="M462.065 130.162C463.448 129.361 464.997 128.89 466.592 128.784C468.186 128.679 469.784 128.942 471.261 129.553C472.737 130.164 474.054 131.107 475.107 132.308C476.161 133.51 476.924 134.938 477.338 136.482C477.751 138.026 477.803 139.644 477.49 141.212C477.178 142.779 476.509 144.253 475.535 145.521C474.561 146.788 473.308 147.814 471.874 148.519C470.44 149.224 468.862 149.59 467.264 149.587" stroke="#1B3C87" stroke-width="3.19" stroke-linecap="round" stroke-linejoin="round"/>
<path d="M439.822 222.122C432.591 218.835 380.578 199.962 376.062 195.432C371.546 190.903 337.786 126.007 336.702 122.931C337.668 121.866 339.436 116.817 339.331 111.098C339.226 105.379 335.551 103.808 335.269 85.9404C335.177 79.8202 326.198 86.2756 326.31 98.9629C315.661 98.1478 302.147 72.1618 293.93 83.6067C322.195 140.68 353.358 228.577 355.981 231.2C358.604 233.823 426.176 267.941 427.688 267.007C429.199 266.074 442.931 225.856 439.822 222.122Z" fill="white"/>
<path d="M504.725 275.362C510.043 254.543 478.084 221.043 443.535 217.763C437.843 220.84 421.055 259.224 423.033 271.497C436.048 285.381 496.298 308.369 504.725 275.362Z" fill="#46DBC9"/>
<path d="M437.988 216.724C431.06 225.757 417.986 257.304 419.747 268.21C422.166 270.793 426.228 273.692 431.283 276.486" stroke="#1B3C87" stroke-width="3.19" stroke-linecap="round" stroke-linejoin="round"/>
<path d="M440.249 214.476C439.358 215.074 438.59 215.837 437.987 216.724" stroke="#1B3C87" stroke-width="3.19" stroke-linecap="round" stroke-linejoin="round"/>
<path d="M456.8 286.505C476.362 291.455 496.791 290.285 501.438 272.075C505.639 255.641 486.609 231.318 461.421 220.143" stroke="#1B3C87" stroke-width="3.19" stroke-linecap="round" stroke-linejoin="round"/>
<path d="M295.212 88.4318C293.713 85.6796 292.179 82.9712 290.611 80.3067C288.441 77.1973 298.216 71.2218 313.781 91.6792" stroke="#1B3C87" stroke-width="3.19" stroke-linecap="round" stroke-linejoin="round"/>
<path d="M366.149 235.663C359.477 232.002 354.383 229.09 352.687 227.9C346.831 223.745 329.478 155.858 300.818 99.0547" stroke="#1B3C87" stroke-width="3.19" stroke-linecap="round" stroke-linejoin="round"/>
<path d="M419.695 263.707C417.723 262.951 400.113 253.846 383.365 244.939" stroke="#1B3C87" stroke-width="3.19" stroke-linecap="round" stroke-linejoin="round"/>
<path d="M343.15 138.924C337.793 128.623 333.776 120.669 333.415 119.644C334.381 118.579 336.149 113.53 336.044 107.811C335.939 102.092 332.265 100.521 331.982 82.6532C331.89 76.5331 322.911 82.9885 323.023 95.6758" stroke="#1B3C87" stroke-width="3.19" stroke-linecap="round" stroke-linejoin="round"/>
<path d="M436.535 218.835C429.304 215.548 377.291 196.675 372.775 192.146C370.908 190.279 364.085 178.157 356.631 164.339" stroke="#1B3C87" stroke-width="3.19" stroke-linecap="round" stroke-linejoin="round"/>
<path d="M293.923 344.505L151.916 381.022L254.537 485.762L293.923 344.505Z" stroke="#D8DFFF" stroke-width="3.19" stroke-linecap="round" stroke-linejoin="round"/>
</g>
</svg>
