<svg width="20" height="20" viewBox="0 0 20 20" fill="none" xmlns="http://www.w3.org/2000/svg">
<path d="M2 1.33334C0.895431 1.33334 0 2.22877 0 3.33334V6.00001C0 7.10458 0.895431 8.00001 2 8.00001H4.66667C5.77124 8.00001 6.66667 7.10458 6.66667 6.00001V3.33334C6.66667 2.22877 5.77124 1.33334 4.66667 1.33334H2Z" fill="#FBB03B"/>
<path d="M9.33333 5.33334H20V4.00001H9.33333V5.33334Z" fill="#FBB03B"/>
<path d="M2 12C0.895431 12 0 12.8954 0 14V16.6667C0 17.7712 0.895431 18.6667 2 18.6667H4.66667C5.77124 18.6667 6.66667 17.7712 6.66667 16.6667V14C6.66667 12.8954 5.77124 12 4.66667 12H2Z" fill="#FBB03B"/>
<path d="M9.33333 16H20V14.6667H9.33333V16Z" fill="#FBB03B"/>
</svg>
